<?xml version="1.0" encoding="UTF-8"?>
<svg id="Layer_2" data-name="Layer 2" xmlns="http://www.w3.org/2000/svg" viewBox="0 0 249.11 250.12">
  <defs>
    <style>
      .cls-1 {
        fill: #111827;
      }
    </style>
  </defs>
  <g id="Layer_1-2" data-name="Layer 1">
    <g>
      <path class="cls-1" d="m114.91,226.63v17.77c2.74,1.7,5.53,3.37,8.39,5.01l1.25.72,1.24-.72c2.86-1.64,5.67-3.31,8.41-5.02v-126.97h-19.29v109.22h0Z"/>
      <polygon class="cls-1" points="181.01 86.76 68.09 86.76 68.09 106.06 181.01 106.06 181.01 86.76 181.01 86.76"/>
      <polygon class="cls-1" points="198.3 55.6 50.81 55.6 50.81 74.89 198.3 74.89 198.3 55.6 198.3 55.6"/>
      <path class="cls-1" d="m247.85,37.08C203.13,6.43,156.67,0,125.56,0h-2.04C92.43,0,45.98,6.43,1.26,37.08l-1.26.87.19,1.51c6.66,52.75,18.04,92.23,35.82,124.27,11.75,21.18,26.79,39.77,45.47,56.12,6.05,5.31,12.47,10.37,19.3,15.19v-117.63h-19.3v82.22C45.44,163.85,25.97,116.41,16.09,45.27,55.79,20.27,96.29,14.99,123.43,14.99h2.24c27.14,0,67.66,5.28,107.34,30.28-9.89,71.13-29.35,118.57-65.38,154.34v-82.2h-19.3v117.62c6.82-4.83,13.25-9.9,19.3-15.2,18.68-16.35,33.72-34.94,45.47-56.1,17.77-32.03,29.15-71.52,35.82-124.27l.19-1.51-1.26-.87h0Z"/>
    </g>
  </g>
</svg>